<?xml version="1.0" encoding="UTF-8"?>
<!-- Generator: Adobe Illustrator 26.3.1, SVG Export Plug-In . SVG Version: 6.00 Build 0)  -->
<svg version="1.1" id="Layer_1" xmlns="http://www.w3.org/2000/svg" xmlns:xlink="http://www.w3.org/1999/xlink" x="0px" y="0px" viewBox="0 0 219.5 53.3" style="enable-background:new 0 0 219.5 53.3;" xml:space="preserve">
<style type="text/css">
	.st0{fill:#2a9d8f;}
</style>
<g id="Layer_2_00000154399952235760947780000000535494836563951803_">
	<g id="Layer_1-2">
		<path class="st0" d="M76.4,52.4V52h0.6c0.2,0,0.3-0.1,0.3-0.4v-3.4c0-0.2-0.1-0.4-0.3-0.4h-0.6v-0.4H79v0.4h-0.6    c-0.2,0-0.3,0.1-0.3,0.4v3.4c0,0.2,0.1,0.4,0.3,0.4H79v0.4H76.4z"/>
		<path class="st0" d="M80.7,49.5L80.7,49.5c0.3-0.5,0.8-0.8,1.3-0.7c0.6,0,1.2,0.4,1.2,1.1c0,0.1,0,0.1,0,0.2v1.6    c0,0.2,0,0.3,0.3,0.3H84v0.3h-2.1V52h0.4c0.2,0,0.3-0.1,0.3-0.3V50c0-0.5-0.2-0.8-0.8-0.8c-0.6,0-1.1,0.5-1.1,1.1c0,0,0,0,0,0.1    v1.3c0,0.2,0,0.3,0.3,0.3h0.5v0.3h-2.2V52h0.5c0.2,0,0.3-0.1,0.3-0.3v-2.1c0-0.2,0-0.3-0.3-0.3h-0.5v-0.3h1.4V49.5z"/>
		<path class="st0" d="M84.9,51c0.1,0.7,0.7,1.2,1.4,1.2c0.5,0,0.8-0.2,0.8-0.6c0-1-2.6-0.2-2.6-1.7c0-0.8,0.7-1,1.3-1    c0.4,0,0.8,0.1,1.2,0.4l0.1-0.3h0.3v1.4h-0.4c-0.1-0.6-0.6-1.1-1.3-1.1c-0.3,0-0.7,0.1-0.7,0.6c0,0.9,2.6,0.2,2.6,1.7    c0,0.8-0.7,1.1-1.4,1.1c-0.5,0-0.9-0.2-1.3-0.5l-0.1,0.4h-0.4V51H84.9z"/>
		<path class="st0" d="M88.2,48.9c0.7-0.1,0.9-0.8,0.9-1.5h0.4v1.5h1.1v0.3h-1.1v2.5c0,0.3,0.1,0.4,0.4,0.4s0.5-0.3,0.5-0.7V51h0.3    v0.3c0,0.7-0.2,1.2-1,1.2c-0.4,0.1-0.8-0.3-0.9-0.7c0-0.1,0-0.1,0-0.2v-2.4h-0.7L88.2,48.9z"/>
		<path class="st0" d="M92.5,51.7c0,0.2,0,0.3,0.3,0.3h0.5v0.3h-2.2V52h0.5c0.2,0,0.3-0.1,0.3-0.3v-2.1c0-0.2,0-0.3-0.3-0.3h-0.5    v-0.3h1.4V51.7z M92.1,48.2c-0.2,0-0.4-0.2-0.4-0.4c0-0.2,0.2-0.4,0.4-0.4c0,0,0,0,0,0c0.2,0,0.4,0.2,0.4,0.4    C92.5,48,92.3,48.2,92.1,48.2C92.1,48.2,92.1,48.2,92.1,48.2z"/>
		<path class="st0" d="M93.7,48.9c0.7-0.1,0.8-0.8,0.9-1.5H95v1.5h1v0.3h-1v2.5c0,0.3,0.1,0.4,0.4,0.4s0.5-0.3,0.5-0.7V51h0.3v0.3    c0,0.7-0.2,1.2-1,1.2c-0.4,0.1-0.8-0.3-0.9-0.7c0-0.1,0-0.1,0-0.2v-2.4h-0.6L93.7,48.9z"/>
		<path class="st0" d="M99.9,51.8L99.9,51.8c-0.3,0.5-0.8,0.7-1.3,0.7c-0.8,0-1.2-0.3-1.2-1.2v-1.7c0-0.2,0-0.3-0.3-0.3h-0.5v-0.3    H98v2.4c0,0.5,0.2,0.8,0.8,0.8c0.6,0,1.1-0.5,1.2-1.1c0,0,0,0,0-0.1v-1.3c0-0.2-0.1-0.3-0.3-0.3h-0.5v-0.3h1.4v2.8    c0,0.2,0.1,0.3,0.3,0.3h0.5v0.3h-1.5V51.8z"/>
		<path class="st0" d="M101.7,48.9c0.7-0.1,0.8-0.8,0.9-1.5h0.4v1.5h1.1v0.3H103v2.5c0,0.3,0.1,0.4,0.4,0.4s0.5-0.3,0.5-0.7V51h0.4    v0.3c0,0.7-0.2,1.2-1,1.2c-0.4,0.1-0.8-0.3-0.9-0.7c0-0.1,0-0.1,0-0.2v-2.4h-0.7L101.7,48.9z"/>
		<path class="st0" d="M108.5,50.6c0.1,1.1-0.7,2.1-1.8,2.1c-1.1,0.1-2.1-0.7-2.1-1.8c-0.1-1.1,0.7-2.1,1.8-2.1c0,0,0.1,0,0.1,0    c1-0.1,1.9,0.6,2,1.6C108.5,50.5,108.5,50.6,108.5,50.6z M105.3,50.6c0,0.8,0.3,1.5,1.2,1.5s1.2-0.7,1.2-1.5s-0.3-1.5-1.2-1.5    S105.3,49.8,105.3,50.6z"/>
		<path class="st0" d="M114.1,51.7L114.1,51.7c-0.2,0.5-0.7,0.8-1.3,0.8c-1-0.1-1.8-1-1.7-2c0.1-0.9,0.8-1.6,1.7-1.7    c0.5,0,1,0.3,1.3,0.7l0,0v-1.3c0-0.2-0.1-0.4-0.3-0.4h-0.4v-0.3h1.4v4.3c0,0.1,0.1,0.2,0.2,0.2h0.4v0.3h-1.4L114.1,51.7z     M111.9,50.6c0,0.8,0.3,1.4,1,1.4s1.2-0.7,1.2-1.4s-0.3-1.4-1.1-1.4S111.9,49.9,111.9,50.6z"/>
		<path class="st0" d="M116.5,50.7c0,0.8,0.2,1.5,1.1,1.5c0.6,0,1-0.3,1.1-0.9h0.4c-0.1,0.8-0.8,1.3-1.6,1.2c-1,0-1.8-0.8-1.8-1.9    c0-1,0.8-1.8,1.8-1.8c1.2,0,1.6,0.8,1.7,1.9H116.5z M118.5,50.3c0-0.6-0.3-1.2-1-1.2s-1,0.5-1,1.2H118.5z"/>
		<path class="st0" d="M121.8,52.4V52h0.6c0.2,0,0.3-0.1,0.3-0.4v-3.4c0-0.2-0.1-0.4-0.3-0.4h-0.5v-0.4h4.8v1.9h-0.4    c0-0.9-0.1-1.5-1.2-1.5h-1.6v1.8h0.6c0.6,0,0.7-0.2,0.7-1h0.4V51h-0.4c0-0.9-0.1-1.1-0.7-1.1h-0.6v2h1.6c1.1,0,1.2-0.5,1.2-1.6    h0.4v2L121.8,52.4z"/>
		<path class="st0" d="M127.9,51c0.1,0.7,0.7,1.2,1.4,1.2c0.5,0,0.8-0.2,0.8-0.6c0-1-2.6-0.2-2.6-1.7c0-0.8,0.7-1,1.4-1    c0.4,0,0.8,0.1,1.2,0.4l0.1-0.3h0.4v1.4h-0.4c-0.1-0.6-0.6-1.1-1.3-1.1c-0.3,0-0.7,0.1-0.7,0.6c0,0.9,2.5,0.2,2.5,1.7    c0,0.8-0.7,1.1-1.4,1.1c-0.5,0-1-0.2-1.3-0.5l-0.1,0.4h-0.4V51H127.9z"/>
		<path class="st0" d="M131.2,48.9c0.7-0.1,0.9-0.8,0.9-1.5h0.4v1.5h1.1v0.3h-1.1v2.5c0,0.3,0.1,0.4,0.4,0.4s0.5-0.3,0.5-0.7V51h0.4    v0.3c0,0.7-0.2,1.2-1,1.2c-0.4,0.1-0.8-0.3-0.9-0.7c0-0.1,0-0.1,0-0.2v-2.4h-0.6L131.2,48.9z"/>
		<path class="st0" d="M137.4,51.8L137.4,51.8c-0.3,0.5-0.8,0.7-1.3,0.7c-0.8,0-1.2-0.3-1.2-1.2v-1.7c0-0.2,0-0.3-0.3-0.3h-0.5v-0.3    h1.4v2.4c0,0.5,0.2,0.8,0.8,0.8c0.6,0,1.1-0.5,1.2-1.1c0,0,0,0,0-0.1v-1.3c0-0.2-0.1-0.3-0.3-0.3h-0.5v-0.3h1.4v2.8    c0,0.2,0.1,0.3,0.3,0.3h0.5v0.3h-1.4L137.4,51.8z"/>
		<path class="st0" d="M142.1,51.7L142.1,51.7c-0.2,0.5-0.7,0.8-1.3,0.8c-1-0.1-1.8-1-1.7-2c0.1-0.9,0.8-1.6,1.7-1.7    c0.5,0,1,0.3,1.3,0.7l0,0v-1.3c0-0.2-0.1-0.4-0.4-0.4h-0.4v-0.3h1.4v4.3c0,0.1,0.1,0.3,0.2,0.3c0,0,0,0,0.1,0h0.4v0.3h-1.4V51.7z     M140,50.6c0,0.8,0.3,1.4,1,1.4s1.2-0.7,1.2-1.4s-0.3-1.4-1.1-1.4S140,49.9,140,50.6z"/>
		<path class="st0" d="M147.7,50.6c0.1,1.1-0.7,2.1-1.8,2.1c-1.1,0.1-2.1-0.7-2.1-1.8s0.7-2.1,1.8-2.1c0,0,0.1,0,0.1,0    c1-0.1,1.9,0.6,2,1.6C147.7,50.5,147.7,50.6,147.7,50.6z M144.5,50.6c0,0.8,0.3,1.5,1.2,1.5s1.2-0.7,1.2-1.5s-0.3-1.5-1.2-1.5    S144.5,49.8,144.5,50.6z"/>
		<path class="st0" d="M148.5,51c0.1,0.7,0.8,1.2,1.5,1.1c0.5,0,0.8-0.2,0.8-0.6c0-1-2.6-0.2-2.6-1.7c0-0.8,0.7-1,1.4-1    c0.4,0,0.8,0.1,1.2,0.4l0.1-0.3h0.4v1.4h-0.4c-0.1-0.6-0.6-1.1-1.3-1.1c-0.3,0-0.7,0.1-0.7,0.6c0,0.9,2.6,0.2,2.6,1.7    c0,0.8-0.7,1.1-1.4,1.1c-0.5,0-0.9-0.2-1.3-0.5l-0.1,0.4h-0.4V51H148.5z"/>
		<path class="st0" d="M158.2,49.3h-0.4c0-0.9-0.8-1.6-1.7-1.6c-0.9,0-1.2,0.4-1.2,0.9c0,1.4,3.5,0.3,3.5,2.4c0,1-0.9,1.5-2,1.5    c-0.6,0-1.2-0.2-1.6-0.7l-0.2,0.5h-0.4v-2h0.4c0.1,1,0.9,1.7,1.8,1.8c0.6,0,1.3-0.2,1.3-0.9c0-1.5-3.5-0.4-3.5-2.5    c0-0.7,0.5-1.4,1.8-1.4c0.6,0,1.2,0.2,1.6,0.6l0.2-0.4h0.4V49.3z"/>
		<path class="st0" d="M162.7,50.6c0.1,1.1-0.7,2.1-1.8,2.1c-1.1,0.1-2.1-0.7-2.1-1.8s0.7-2.1,1.8-2.1c0,0,0.1,0,0.1,0    c1-0.1,1.9,0.6,2,1.6C162.7,50.5,162.7,50.6,162.7,50.6z M159.5,50.6c0,0.8,0.3,1.5,1.2,1.5s1.2-0.7,1.2-1.5s-0.3-1.5-1.2-1.5    S159.5,49.8,159.5,50.6z"/>
		<path class="st0" d="M166.4,51.1c-0.1,1-0.7,1.4-1.7,1.4c-0.9,0-1.7-0.7-1.7-1.6c0-0.1,0-0.2,0-0.2c0-1,0.7-1.8,1.7-1.9    c0.1,0,0.1,0,0.2,0c0.7,0,1.5,0.3,1.5,1.1c0,0.3-0.2,0.5-0.4,0.5c0,0,0,0-0.1,0c-0.2,0-0.4-0.2-0.4-0.3c0-0.2,0.1-0.4,0.4-0.4    c0,0,0,0,0,0c-0.1-0.4-0.6-0.5-1-0.5c-1,0-1.3,0.8-1.3,1.5s0.3,1.5,1.1,1.5c0.6,0,1-0.4,1.1-1L166.4,51.1z"/>
		<path class="st0" d="M168.2,51.7c0,0.2,0.1,0.3,0.3,0.3h0.5v0.3h-2.2V52h0.5c0.2,0,0.3-0.1,0.3-0.3v-2.1c0-0.2-0.1-0.3-0.3-0.3    h-0.5v-0.3h1.4L168.2,51.7z M167.8,48.2c-0.2,0-0.4-0.2-0.4-0.4c0-0.2,0.2-0.4,0.4-0.4c0,0,0,0,0,0c0.2,0,0.4,0.2,0.4,0.4    C168.2,48,168,48.2,167.8,48.2C167.8,48.2,167.8,48.2,167.8,48.2z"/>
		<path class="st0" d="M172.4,51.8c0,0.2,0.1,0.4,0.2,0.4c0.3,0,0.4-0.4,0.4-0.6v-0.3h0.4v0.2c0,0.8-0.3,1.1-0.9,1.1    c-0.3,0-0.6-0.2-0.7-0.6c-0.3,0.4-0.8,0.6-1.3,0.6c-0.6,0-1.1-0.3-1.1-0.9c0-1,1.4-1,2.1-1.3c0.2-0.1,0.3-0.3,0.3-0.5    c0-0.4-0.2-0.6-0.9-0.6c-0.3,0-0.6,0.1-0.9,0.3c0.2,0,0.4,0.2,0.4,0.4c0,0.2-0.2,0.4-0.4,0.4c0,0,0,0,0,0c-0.3,0-0.4-0.2-0.4-0.5    c0-0.6,0.9-0.9,1.4-0.9c0.9,0,1.4,0.2,1.4,1.2L172.4,51.8z M171.8,50.5c-0.4,0.2-0.7,0.3-1.1,0.5c-0.4,0.2-0.6,0.3-0.6,0.6    c0,0.3,0.2,0.6,0.5,0.6c0,0,0.1,0,0.1,0c0.6,0,1-0.4,1.1-1L171.8,50.5z"/>
		<path class="st0" d="M175,51.7c0,0.2,0.1,0.3,0.3,0.3h0.5v0.3h-2.2V52h0.4c0.2,0,0.3-0.1,0.3-0.3v-2.1c0-0.2-0.1-0.3-0.3-0.3h-0.5    v-0.3h1.5V51.7z M174.6,48.2c-0.2,0-0.4-0.2-0.4-0.4c0-0.2,0.2-0.4,0.4-0.4c0,0,0,0,0,0c0.2,0,0.4,0.2,0.4,0.4    C175,48,174.8,48.2,174.6,48.2C174.6,48.2,174.6,48.2,174.6,48.2z"/>
		<path class="st0" d="M176.6,51c0.1,0.7,0.7,1.2,1.4,1.1c0.5,0,0.8-0.2,0.8-0.6c0-1-2.6-0.2-2.6-1.7c0-0.8,0.7-1,1.4-1    c0.4,0,0.8,0.1,1.2,0.4l0.1-0.3h0.4v1.4h-0.4c-0.1-0.6-0.6-1.1-1.3-1.1c-0.3,0-0.7,0.1-0.7,0.6c0,0.9,2.6,0.2,2.6,1.7    c0,0.8-0.7,1.1-1.4,1.1c-0.5,0-0.9-0.2-1.3-0.5l-0.1,0.4h-0.4V51H176.6z"/>
		<path class="st0" d="M182.9,50.7c0,0.8,0.2,1.5,1.1,1.5c0.6,0,1-0.3,1.1-0.9h0.4c-0.1,0.8-0.8,1.3-1.6,1.2c-1,0-1.9-0.8-1.9-1.9    c0-1,0.8-1.8,1.9-1.8c1.2,0,1.6,0.8,1.7,1.9H182.9z M184.9,50.3c0-0.6-0.3-1.2-1-1.2s-1,0.5-1,1.2H184.9z"/>
		<path class="st0" d="M188.3,52.4V52h0.6c0.2,0,0.3-0.1,0.3-0.4v-3.4c0-0.2-0.1-0.4-0.4-0.4h-0.6v-0.4h2.7c1.2,0,2.1,0.3,2.1,1.3    s-0.8,1.4-1.8,1.4H190v1.4c0,0.3,0.1,0.5,0.5,0.5h0.4v0.4L188.3,52.4z M189.9,49.8h1.1c0.7,0,1.2-0.2,1.2-1s-0.5-1-1.2-1h-1.1    L189.9,49.8z"/>
		<path class="st0" d="M197.3,50.6c0.1,1.1-0.7,2.1-1.8,2.1c-1.1,0.1-2.1-0.7-2.1-1.8s0.7-2.1,1.8-2.1c0,0,0.1,0,0.1,0    c1-0.1,1.9,0.6,2,1.6C197.3,50.5,197.3,50.6,197.3,50.6z M194.1,50.6c0,0.8,0.3,1.5,1.2,1.5s1.2-0.7,1.2-1.5s-0.3-1.5-1.2-1.5    S194.1,49.8,194.1,50.6z"/>
		<path class="st0" d="M199,51.7c0,0.2,0.1,0.3,0.3,0.3h0.5v0.3h-2.2V52h0.5c0.2,0,0.3-0.1,0.3-0.3v-3.5c0-0.2-0.1-0.3-0.3-0.3    c0,0,0,0,0,0h-0.5v-0.3h1.4V51.7z"/>
		<path class="st0" d="M201.5,51.7c0,0.2,0.1,0.3,0.3,0.3h0.5v0.3h-2.2V52h0.5c0.2,0,0.3-0.1,0.3-0.3v-2.1c0-0.2-0.1-0.3-0.3-0.3    h-0.5v-0.3h1.4L201.5,51.7z M200.5,48.4l0.9-1c0.2-0.2,0.3-0.3,0.5-0.3c0.1,0,0.3,0.1,0.3,0.3c0,0.2-0.1,0.2-0.3,0.4l-1.1,0.7    H200.5z"/>
		<path class="st0" d="M202.7,48.9c0.7-0.1,0.9-0.8,0.9-1.5h0.4v1.5h1v0.3h-1v2.5c0,0.3,0.1,0.4,0.4,0.4s0.5-0.3,0.5-0.7V51h0.4v0.3    c0,0.7-0.2,1.2-1,1.2c-0.4,0.1-0.8-0.3-0.9-0.7c0-0.1,0-0.1,0-0.2v-2.4h-0.6L202.7,48.9z"/>
		<path class="st0" d="M207,51.7c0,0.2,0.1,0.3,0.3,0.3h0.5v0.3h-2.2V52h0.5c0.2,0,0.3-0.1,0.3-0.3v-2.1c0-0.2-0.1-0.3-0.3-0.3h-0.5    v-0.3h1.4V51.7z M206.6,48.2c-0.2,0-0.4-0.2-0.4-0.4c0-0.2,0.2-0.4,0.4-0.4c0,0,0,0,0,0c0.2,0,0.4,0.2,0.4,0.4    C207,48,206.8,48.2,206.6,48.2C206.6,48.2,206.6,48.2,206.6,48.2z"/>
		<path class="st0" d="M211.5,51.1c-0.1,1-0.7,1.4-1.7,1.4c-0.9,0-1.7-0.7-1.7-1.6c0-0.1,0-0.2,0-0.3c0-1,0.7-1.8,1.7-1.9    c0.1,0,0.1,0,0.2,0c0.7,0,1.5,0.3,1.5,1.1c0,0.3-0.2,0.5-0.4,0.5c0,0,0,0-0.1,0c-0.2,0-0.4-0.2-0.4-0.3c0-0.2,0.1-0.4,0.4-0.4    c0,0,0,0,0,0c-0.1-0.4-0.6-0.5-1-0.5c-1,0-1.3,0.8-1.3,1.5s0.3,1.5,1.1,1.5c0.6,0,1-0.4,1.1-1L211.5,51.1z"/>
		<path class="st0" d="M215.8,50.6c0.1,1.1-0.7,2.1-1.8,2.1c-1.1,0.1-2.1-0.7-2.1-1.8s0.7-2.1,1.8-2.1c0,0,0.1,0,0.1,0    c1-0.1,1.9,0.6,2,1.6C215.8,50.5,215.8,50.6,215.8,50.6z M212.6,50.6c0,0.8,0.3,1.5,1.2,1.5s1.2-0.7,1.2-1.5s-0.3-1.5-1.2-1.5    S212.6,49.8,212.6,50.6L212.6,50.6z"/>
		<path class="st0" d="M216.6,51c0.1,0.7,0.7,1.2,1.4,1.2c0.4,0,0.8-0.2,0.8-0.6c0-1-2.6-0.2-2.6-1.7c0-0.8,0.7-1,1.4-1    c0.4,0,0.8,0.1,1.2,0.4l0.1-0.3h0.3v1.4h-0.4c-0.1-0.6-0.6-1.1-1.3-1.1c-0.3,0-0.7,0.1-0.7,0.6c0,0.9,2.6,0.2,2.6,1.7    c0,0.8-0.7,1.1-1.4,1.1c-0.5,0-0.9-0.2-1.3-0.5l-0.1,0.4h-0.4V51H216.6z"/>
		<path class="st0" d="M76.5,41.8V40h1.2c1,0,1.4-0.2,1.4-0.9V28.7c0-0.6-0.3-1.1-1.2-1.1h-1.3v-1.8H85v1.8h-1    c-0.8,0-1.5,0.2-1.5,1.2v10.1c-0.1,0.5,0.3,1.1,0.8,1.2c0.1,0,0.2,0,0.3,0H85v1.8L76.5,41.8z"/>
		<path class="st0" d="M87.6,41.8V40H89c0.8,0,1.3-0.2,1.3-1.7V29c0-1-0.3-1.4-1.5-1.4h-1.1v-1.8h15.9v6.4h-1.8    c-0.4-3.3-0.7-4.6-3.9-4.6h-4.2v5h1.3c1.4,0,2.1-0.7,2.1-2.7v-0.3h1.8v8H97V37c0-2-0.7-2.7-2.1-2.7h-1.3V40h4.8    c2.2,0,3.1-1.4,3.3-5h1.8v6.7L87.6,41.8z"/>
		<path class="st0" d="M118.3,25.8h1.4v6.1H118c-0.6-2.6-2.1-4.5-5-4.5c-2.2,0-3.2,0.6-3.2,2.2c0,3.6,10.7,0.9,10.7,7.6    c0,3.8-3,5.1-6.4,5.1c-1.8-0.1-3.6-0.7-5-1.9l-0.5,1.4H107v-6.5h1.8c0.3,3.2,2.3,5,5.7,5c2.1,0,3.1-1,3.1-2.1    c0-4.1-10.7-1-10.7-7.9c0-3.4,3.1-4.8,6-4.8c1.7,0.1,3.3,0.6,4.6,1.6L118.3,25.8z"/>
		<path class="st0" d="M123.2,41.8V40h1.5c0.6,0,1-0.2,1-0.8V28.4c0-0.6-0.5-0.8-1-0.8h-1.5v-1.8h9.4c3.6,0,5.7,1.7,5.7,4.4    c0,3-2.2,4.4-5.4,4.4h-3.8v4.6c0,0.6,0.6,0.8,1.2,0.8h1.5v1.8H123.2z M129.2,32.8h2.2c2.3,0,3.5-0.7,3.5-2.5s-1-2.6-3.5-2.6h-2.2    V32.8z"/>
		<path class="st0" d="M141,38.6c1,0,1.8,0.8,1.8,1.8s-0.8,1.8-1.8,1.8c-1,0-1.8-0.8-1.8-1.8c0,0,0,0,0,0    C139.2,39.4,140,38.6,141,38.6C141,38.6,141,38.6,141,38.6z"/>
		<path class="st0" d="M146.9,25.8h8.6v1.8h-1.1c-1.2,0-1.5,0.3-1.5,0.9v8.9c0,1.7,1.2,2.6,3.3,2.6s3.4-0.9,3.4-3.3v-7.8    c0-1-0.3-1.3-1.4-1.3H157v-1.8h7.7v1.8h-1.3c-1,0-1.2,0.3-1.2,1.3v8c0,4.2-3.2,5.3-6.3,5.3s-6.3-1.1-6.3-4.8v-8.9    c0-0.8-0.6-1-1.6-1h-1V25.8z"/>
		<path class="st0" d="M167.3,41.8V40h1.4c0.8,0,1.3-0.2,1.3-1.7V29c0-1-0.3-1.4-1.5-1.4h-1.1v-1.8h15.9v6.4h-1.8    c-0.4-3.3-0.6-4.6-3.9-4.6h-4.2v5h1.3c1.4,0,2.1-0.7,2.1-2.7v-0.3h1.8v8h-1.8V37c0-2-0.6-2.7-2.1-2.7h-1.3V40h4.8    c2.2,0,3.1-1.4,3.3-5h1.8v6.7L167.3,41.8z"/>
		<path class="st0" d="M186.6,41.8V40h1.7c0.8,0,1-0.2,1-0.9V28.5c0-0.6-0.2-0.9-1-0.9h-1.7v-1.8H197c3.5,0,5.1,1.4,5.1,4    c0,2.5-2.1,3.7-4.5,3.9v0c2.5,0.3,3.1,1.4,3.1,3.3c0,2.5,0.6,2.9,1,2.9c0.6,0,0.8-0.5,0.8-1.9v-0.8h1.6v0.8c0,3.1-1.3,4.2-3.3,4.2    c-2.4,0-3.1-1.3-3.1-3.3c0-3.9-0.9-4.7-3.7-4.7h-1.4v4.8c0,0.6,0.2,0.9,1,0.9h1.8v1.8L186.6,41.8z M192.6,32.5h2.8    c2.6,0,3.4-0.9,3.4-2.6c0-1.5-1-2.3-3.1-2.3h-3.1V32.5z"/>
		<path class="st0" d="M217.7,27.6c-0.7,0-1,0.2-1,0.9v9.9c0,2.5-2.2,3.9-4.9,3.9c-2.2,0-5.3-1-5.3-3.7c0-1.4,0.7-2.6,2.2-2.6    c1,0,1.8,0.8,1.9,1.8c0.1,1-0.5,1.8-1.5,2c-0.1,0-0.2,0-0.3,0c0.6,0.5,1.4,0.8,2.3,0.8c1.3,0,2.3-0.6,2.3-1.9V28.5    c0-0.6-0.2-0.9-1-0.9h-1.6v-1.8h8.6v1.8H217.7z"/>
		<path class="st0" d="M69.8,6.8c0,0,0.1,0,0.2-0.5c0.1-0.3,0.3-0.5,0.6-0.6V5.3h-41v0.5c0.3,0,0.5,0.3,0.6,0.6    c0.1,0.5,0.2,0.5,0.2,0.5H69.8z"/>
		<rect x="31.6" class="st0" width="37.4" height="4.8"/>
		<polygon class="st0" points="69,8.2 31.3,8.2 30.4,7.3 69.8,7.3   "/>
		<rect x="31.3" y="8.8" class="st0" width="37.8" height="1.4"/>
		<path class="st0" d="M30.8,27.2H25c0,0-0.1,0-0.2-0.5c0-0.3-0.3-0.5-0.6-0.5v-0.5h6.5L30.8,27.2z"/>
		<polygon class="st0" points="30.8,27.7 25.1,27.7 25.9,28.7 30.8,28.7   "/>
		<path class="st0" d="M26.8,31.8h-0.9c0.2-0.9,0.2-1.8,0-2.7h0.9C26.6,30,26.6,30.9,26.8,31.8z"/>
		<path class="st0" d="M28.6,31.8h-0.9c0.2-0.9,0.2-1.8,0-2.7h0.9C28.4,30,28.4,30.9,28.6,31.8z"/>
		<path class="st0" d="M30.4,31.8h-0.9c0.2-0.9,0.2-1.8,0-2.7h0.9C30.2,30,30.2,30.9,30.4,31.8z"/>
		<rect x="25.5" y="32.3" class="st0" width="5.2" height="1.3"/>
		<path class="st0" d="M30.8,37.2c0,0-0.4-2.5-3.3-1.7c-1.4,0.4-1.6-1.3-1.6-1.3h4.9V37.2z"/>
		<path class="st0" d="M2.9,37.8h1.2c0,0,0.2,0,0.3-0.5s0.8-0.6,0.8-0.6v-0.4H0v0.5c0,0,0.7,0,0.8,0.5s0.3,0.5,0.3,0.5    S2.9,37.8,2.9,37.8z"/>
		<rect x="1.2" y="38.2" class="st0" width="2.8" height="1"/>
		<path class="st0" d="M15.6,37.4c0.1,0.5,0.3,0.5,0.3,0.5h3c0,0,0.2,0,0.3-0.5s0.8-0.6,0.8-0.6v-0.4h-5.2v0.5    C14.8,36.8,15.5,36.9,15.6,37.4z"/>
		<rect x="16" y="38.2" class="st0" width="2.8" height="1"/>
		<path class="st0" d="M16.3,48.6h-1.7V42h1.6v6.2h2.3v-1.8h1.3v1.8h0.2v-1.8h1.7v1.8H22v-1.8h1.7v1.8h0.2v-1.8h1.7v1.8h0.2v-1.8    h1.7v1.8h0.2v-1.8h1.7v1.8h0.2v-1.8h0.9v-0.2h-0.9V42h0.9v-0.2h-0.9v-1.8h0.9v-0.2h-0.9v-1.5h-0.2v1.5h-1.7v-1.5h-0.2v1.5h-1.7    v-1.5h-0.2v1.5h-1.7v-1.5h-0.2v1.5H22v-1.5h-0.2v1.5h-1.6v-1.5h-0.2v1.5h-3.6v2.1h-1.6v-2h-0.2v2h-1.9v-2h-0.2v2h-1.9v-2H9.7v2H8    v-2H7.8v2h-2v-2H5.5v2H3.8v-2.1H1.5v13.6h2.3l0,0h12.4l0,0H69v-4.7H16.3z M27.8,39.9h1.7v1.8h-1.7V39.9z M27.8,42h1.7v4.1h-1.7V42    z M25.8,39.9h1.7v1.8h-1.7V39.9z M25.8,42h1.7v4.1h-1.7V42z M23.9,39.9h1.7v1.8h-1.7V39.9z M23.9,42h1.7v4.1h-1.7V42z M22,39.9    h1.7v1.8H22V39.9z M22,42h1.7v4.1H22V42z M20.1,39.9h1.7v1.8h-1.6L20.1,39.9z M20.1,42h1.7v4.1h-1.6L20.1,42z M18.6,39.9h1.3v1.8    h-1.3L18.6,39.9z M18.6,42h1.3v4.1h-1.3L18.6,42z M12.5,42h1.9v6.6h-1.9L12.5,42z M12.5,48.8h1.9v0.6h-1.9L12.5,48.8z M12.2,42    v6.6h-1.9v-0.4h0.4v-0.7h-0.4V42H12.2z M12.2,48.8v0.6h-1.9v-0.6H12.2z M8,42h1.7v5.5H9.3v0.7h0.4v0.4H8V42z M8,48.8h1.7v0.6H8    V48.8z M5.7,42h2.1v6.6h-2L5.7,42z M5.7,48.8h2.1v0.6h-2L5.7,48.8z M3.8,42h1.7v6.6H3.8V42z M3.8,48.8h1.7v0.6H3.8V48.8z     M16.2,52.1H3.8v-2.4h1.7v2h0.2v-2h2.1v2H8v-2h1.7v2h0.6v-2h1.9v2h0.2v-2h1.9v2h0.2v-2h1.6L16.2,52.1z M16.2,49.5h-1.6v-0.6h1.6    V49.5z"/>
		<path class="st0" d="M69,39.6V10.5H31.3v29.1H69z M34.5,35.1v-1.2h1.8v1.2C36.3,35.7,34.5,35.7,34.5,35.1z M49.1,35.2v-1.2h1.8    v1.2C50.9,35.9,49.1,35.9,49.1,35.2z M64.3,35.1v-1.2h1.8v1.2C66.1,35.7,64.3,35.7,64.3,35.1z M66.3,33.5h-32v-1.4h31.9L66.3,33.5    z M34.4,28.7v-1h2v1H34.4z M36.3,29v2.7h-1.7V29L36.3,29z M40.4,18.6v6.7h-0.3v-6.7h-1.7v6.7h-1.7v-8.8h7.1v8.8h-1.7v-6.7H40.4z     M37.8,25.7h25v0.6c0.3,0,0.5,0.2,0.6,0.4c0,0,0,0,0,0c0.1,0.4,0.2,0.5,0.2,0.5H37c0,0,0.1-0.1,0.3-0.5c0.1-0.2,0.3-0.4,0.6-0.4    L37.8,25.7z M50.4,18.6v6.7h-0.3v-6.7h-1.7v6.7h-1.7v-8.8h7.1v8.8h-1.7v-6.7H50.4z M60.5,18.6v6.7h-0.3v-6.7h-1.7v6.7h-1.7v-8.8    H64v8.8h-1.7v-6.7H60.5z M57.1,27.5h6.7v1H36.7v-1H57.1z M63.4,31.7h-0.9c0.2-0.9,0.2-1.8,0-2.7h0.9    C63.2,29.9,63.2,30.8,63.4,31.7z M61,31.7h-0.9c0.2-0.9,0.2-1.8,0-2.7H61C60.8,29.9,60.8,30.8,61,31.7L61,31.7z M58.5,31.7h-0.9    c0.2-0.9,0.2-1.8,0-2.7h0.9C58.3,29.9,58.3,30.8,58.5,31.7z M56,31.7h-0.9c0.2-0.9,0.2-1.8,0-2.7H56C55.8,29.9,55.8,30.8,56,31.7    L56,31.7z M53.4,31.7h-0.9c0.2-0.9,0.2-1.8,0-2.7h0.9C53.2,29.9,53.2,30.8,53.4,31.7z M50.9,31.7H50c0.2-0.9,0.2-1.8,0-2.7h0.9    C50.7,29.9,50.7,30.8,50.9,31.7z M48.2,31.7h-0.9c0.2-0.9,0.2-1.8,0-2.7h0.9C48,29.9,48,30.8,48.2,31.7z M45.8,31.7h-0.9    c0.2-0.9,0.2-1.8,0-2.7h0.9C45.6,29.9,45.6,30.8,45.8,31.7z M43.5,31.7h-0.9c0.2-0.9,0.2-1.8,0-2.7h0.9    C43.3,29.9,43.3,30.8,43.5,31.7z M40.8,31.7H40c0.2-0.9,0.2-1.8,0-2.7h0.9C40.7,29.9,40.6,30.8,40.8,31.7z M38.1,31.7h-0.9    c0.2-0.9,0.2-1.8,0-2.7h0.9C37.9,29.9,37.9,30.8,38.1,31.7z M64.1,28.5v-1h2v1H64.1z M66,29v2.7h-1.7V29H66z M65.4,25.7h1.7v0.5    c-0.3,0-0.5,0.3-0.6,0.5c-0.1,0.5-0.2,0.5-0.2,0.5h-2.2c0,0-0.1,0-0.2-0.5c-0.1-0.3-0.3-0.5-0.6-0.6v-0.4    C63.3,25.7,65.4,25.7,65.4,25.7z M56.8,14c0-0.2,0.2-0.4,0.4-0.4h6.5c0.2,0,0.4,0.2,0.4,0.4v0.4h-7.2V14z M56,14.7h8.7v0.5    c-0.3,0-0.5,0.3-0.6,0.6c-0.1,0.5-0.2,0.5-0.2,0.5l0,0h-7.2l0,0c0,0-0.1,0-0.2-0.5c-0.1-0.3-0.3-0.5-0.6-0.6V14.7z M46.7,14    c0-0.2,0.2-0.4,0.4-0.4h6.5c0.2,0,0.4,0.2,0.4,0.4v0.4h-7.2V14z M46,14.7h8.8v0.5c-0.3,0-0.5,0.3-0.6,0.6    c-0.1,0.5-0.2,0.5-0.2,0.5l0,0h-7.1l0,0c0,0-0.1,0-0.2-0.5c-0.1-0.3-0.3-0.5-0.6-0.6L46,14.7z M36.7,14c0-0.2,0.2-0.4,0.4-0.4h6.4    c0.2,0,0.4,0.2,0.4,0.4v0.4h-7.2V14z M35.9,14.7h8.8v0.5c-0.3,0-0.5,0.3-0.6,0.6c-0.1,0.5-0.2,0.5-0.2,0.5l0,0h-7.1l0,0    c0,0-0.1,0-0.2-0.5c-0.1-0.3-0.3-0.5-0.6-0.6V14.7z M33.5,25.7h3.8v0.4c-0.3,0.1-0.5,0.3-0.6,0.6c-0.1,0.5-0.2,0.5-0.2,0.5h-2.2    c0,0-0.1,0-0.2-0.5c-0.1-0.3-0.3-0.5-0.6-0.5L33.5,25.7z"/>
		<rect x="31.3" y="40" class="st0" width="37.8" height="0.8"/>
		<rect x="31.3" y="41.2" class="st0" width="37.8" height="0.8"/>
		<rect x="31.3" y="42.5" class="st0" width="37.8" height="5.5"/>
	</g>
</g>
</svg>